<?xml version="1.0" encoding="UTF-8" standalone="no"?>
<svg
   version="1.0"
   width="100%"
   height="100%"
   viewBox="0 0 176.000000 161.000000"
   preserveAspectRatio="xMidYMid meet"
   id="svg3"
   sodipodi:docname="LOGO-SOLO.svg"
   inkscape:version="1.3 (0e150ed6c4, 2023-07-21)"
   xmlns:inkscape="http://www.inkscape.org/namespaces/inkscape"
   xmlns:sodipodi="http://sodipodi.sourceforge.net/DTD/sodipodi-0.dtd"
   xmlns="http://www.w3.org/2000/svg"
   xmlns:svg="http://www.w3.org/2000/svg">
  <defs
     id="defs3" />
  <sodipodi:namedview
     id="namedview3"
     pagecolor="#ffffff"
     bordercolor="#000000"
     borderopacity="0.25"
     inkscape:showpageshadow="2"
     inkscape:pageopacity="0.0"
     inkscape:pagecheckerboard="0"
     inkscape:deskcolor="#d1d1d1"
     inkscape:document-units="pt"
     inkscape:zoom="2.3338509"
     inkscape:cx="117.18829"
     inkscape:cy="107.33333"
     inkscape:window-width="1366"
     inkscape:window-height="697"
     inkscape:window-x="-8"
     inkscape:window-y="-8"
     inkscape:window-maximized="1"
     inkscape:current-layer="svg3" />
  <g
     transform="translate(0.000000,161.000000) scale(0.100000,-0.100000)"
     fill="#000000"
     stroke="none"
     id="g3"
     style="fill:#eab308;fill-opacity:1">
    <path
       d="M705 1486 c-143 -37 -281 -130 -371 -250 -100 -132 -144 -264 -144 -425 1 -270 149 -507 392 -625 107 -52 175 -67 308 -67 96 0 128 4 195 25 231 74 412 259 471 480 19 71 16 90 -5 35 -69 -177 -253 -328 -455 -374 -65 -14 -233 -6 -298 15 -375 123 -549 510 -390 865 61 135 204 269 342 321 45 16 20 16 -45 0z"
       id="path1"
       style="fill:#eab308;fill-opacity:1" />
    <path
       d="M880 1465 c-187 -42 -344 -177 -409 -351 -32 -83 -36 -118 -8 -64 84 166 211 262 385 292 293 49 572 -194 572 -499 0 -186 -128 -384 -288 -449 -65 -25 -42 -29 34 -4 265 85 430 370 373 642 -28 135 -129 280 -247 356 -117 75 -284 106 -412 77z"
       id="path2"
       style="fill:#eab308;fill-opacity:1" />
    <path
       d="M754 1092 c-156 -54 -229 -218 -158 -360 48 -97 127 -143 258 -150 76 -4 97 -9 153 -38 54 -28 75 -34 129 -34 l64 0 0 35 c0 33 -2 35 -33 35 -32 0 -137 27 -137 35 0 2 24 28 54 58 63 62 80 110 74 199 -7 97 -83 186 -190 224 -55 19 -152 17 -214 -4z m170 -93 c117 -32 161 -152 91 -244 -38 -51 -79 -69 -156 -70 -55 0 -72 4 -106 27 -47 31 -73 80 -73 138 0 112 119 184 244 149z"
       id="path3"
       style="fill:#eab308;fill-opacity:1" />
  </g>
</svg>
